<?xml version="1.0" encoding="UTF-8"?>
<svg id="_레이어_2" data-name="레이어 2" xmlns="http://www.w3.org/2000/svg" viewBox="0 0 48.68 54.02">
  <defs>
    <style>
      .cls-1 {
        fill: #fff;
      }

      .cls-2 {
        fill: #2c2f33;
      }
    </style>
  </defs>
  <g id="_레이어_1-2" data-name="레이어 1">
    <g>
      <g>
        <g>
          <g>
            <ellipse class="cls-1" cx="13.27" cy="34.42" rx="11.21" ry="18.56"/>
            <path class="cls-2" d="M13.27,54.02c-6.75,0-12.25-8.79-12.25-19.59S6.52,14.83,13.27,14.83s12.25,8.79,12.25,19.59-5.49,19.59-12.25,19.59Zm0-37.12c-5.61,0-10.18,7.86-10.18,17.52s4.57,17.52,10.18,17.52,10.18-7.86,10.18-17.52-4.57-17.52-10.18-17.52Z"/>
          </g>
          <ellipse class="cls-2" cx="9.03" cy="34.42" rx="7.7" ry="12.75"/>
        </g>
        <g>
          <g>
            <ellipse class="cls-1" cx="36.43" cy="34.42" rx="11.21" ry="18.56"/>
            <path class="cls-2" d="M36.43,54.02c-6.75,0-12.25-8.79-12.25-19.59s5.49-19.59,12.25-19.59,12.25,8.79,12.25,19.59-5.49,19.59-12.25,19.59Zm0-37.12c-5.61,0-10.18,7.86-10.18,17.52s4.57,17.52,10.18,17.52,10.18-7.86,10.18-17.52-4.57-17.52-10.18-17.52Z"/>
          </g>
          <ellipse class="cls-2" cx="32.19" cy="34.42" rx="7.7" ry="12.75"/>
        </g>
      </g>
      <polygon class="cls-2" points="44.41 2.31 46.15 0 25.06 4.62 27.61 5.99 25.87 8.31 28.42 9.68 26.67 11.99 26.71 12.16 47.8 7.54 47.77 7.36 45.21 5.99 46.96 3.68 44.41 2.31"/>
      <polygon class="cls-2" points="20.21 12.26 22.77 10.91 1.73 6.08 3.45 8.41 .88 9.76 2.61 12.09 .04 13.43 0 13.61 21.05 18.44 21.09 18.26 19.36 15.93 21.93 14.59 20.21 12.26"/>
    </g>
  </g>
</svg>