<?xml version="1.0" encoding="UTF-8"?>
<svg id="_레이어_2" data-name="레이어 2" xmlns="http://www.w3.org/2000/svg" viewBox="0 0 269.38 217.12">
  <defs>
    <style>
      .cls-1 {
        fill: #5e43ff;
      }

      .cls-2 {
        fill: #2cdf3d;
      }
    </style>
  </defs>
  <g id="_레이어_1-2" data-name="레이어 1">
    <g>
      <g>
        <path class="cls-1" d="M0,0H20.6V21.25h18.96V0h20.53V57.87h-20.53v-21.67H20.6v21.67H0V0Z"/>
        <path class="cls-1" d="M110.3,50.22h-22.96l-3.22,7.65h-21.17L85.24,6.05c1.58-3.67,5.19-6.05,9.19-6.05h15.52l24.46,57.87h-21.1l-3-7.65Zm-16.88-14.59h11.23l-5.29-13.66h-.21l-5.72,13.66Z"/>
        <path class="cls-1" d="M163.81,57.87h-22.32L120.81,0h10.66c5.88,0,11.08,3.81,12.85,9.42l8.26,26.14h.14L163.95,0h21.46l-21.6,57.87Z"/>
        <path class="cls-1" d="M188.27,0h20.6V47.87c0,5.52-4.48,10-10,10h-10.6V0Z"/>
        <path class="cls-1" d="M231.76,14.81h-19.31V0h56.94V14.81h-19.38V47.8c0,5.52-4.48,10-10,10h-8.24V14.81Z"/>
      </g>
      <g>
        <path d="M0,79.62H20.6v21.25h18.96v-21.25h20.53v57.87h-20.53v-21.67H20.6v21.67H0v-57.87Z"/>
        <path d="M110.3,129.84h-22.96l-3.22,7.65h-21.17l22.29-51.82c1.58-3.67,5.19-6.05,9.19-6.05h15.52l24.46,57.87h-21.1l-3-7.65Zm-16.88-14.59h11.23l-5.29-13.66h-.21l-5.72,13.66Z"/>
        <path d="M163.81,137.49h-22.32l-20.67-57.87h10.66c5.88,0,11.08,3.81,12.85,9.42l8.26,26.14h.14l11.23-35.55h21.46l-21.6,57.87Z"/>
        <path d="M188.27,79.62h20.6v47.87c0,5.52-4.48,10-10,10h-10.6v-57.87Z"/>
        <path d="M231.76,94.43h-19.31v-14.81h56.94v14.81h-19.38v32.99c0,5.52-4.48,10-10,10h-8.24v-42.99Z"/>
      </g>
      <g>
        <path class="cls-2" d="M0,159.25H20.6v21.25h18.96v-21.25h20.53v57.87h-20.53v-21.67H20.6v21.67H0v-57.87Z"/>
        <path class="cls-2" d="M110.3,209.46h-22.96l-3.22,7.65h-21.17l22.29-51.82c1.58-3.67,5.19-6.05,9.19-6.05h15.52l24.46,57.87h-21.1l-3-7.65Zm-16.88-14.59h11.23l-5.29-13.66h-.21l-5.72,13.66Z"/>
        <path class="cls-2" d="M163.81,217.12h-22.32l-20.67-57.87h10.66c5.88,0,11.08,3.81,12.85,9.42l8.26,26.14h.14l11.23-35.55h21.46l-21.6,57.87Z"/>
        <path class="cls-2" d="M188.27,159.25h20.6v47.87c0,5.52-4.48,10-10,10h-10.6v-57.87Z"/>
        <path class="cls-2" d="M231.76,174.05h-19.31v-14.81h56.94v14.81h-19.38v32.99c0,5.52-4.48,10-10,10h-8.24v-42.99Z"/>
      </g>
    </g>
  </g>
</svg>